<?xml version="1.0" standalone="no"?><svg xmlns="http://www.w3.org/2000/svg" xmlns:xlink="http://www.w3.org/1999/xlink" style="isolation:isolate" viewBox="-108 8 1002.331 218" width="1002.331" height="218"><g id="Design"><path d=" M 817.992 182.153 L 804.536 182.153 L 770.897 85.264 L 784.353 85.264 L 811.264 162.775 L 824.72 124.02 L 811.264 85.264 L 824.72 85.264 L 831.448 104.642 L 838.176 85.264 L 851.632 85.264 L 838.176 124.02 L 851.632 162.775 L 878.544 85.264 L 892 85.264 L 858.36 182.153 L 844.904 182.153 L 831.448 143.397 L 817.992 182.153 Z " fill-rule="evenodd" fill="rgb(255,255,255)" vector-effect="non-scaling-stroke" stroke-width="4.661" stroke="rgb(0,0,0)" stroke-opacity="100" stroke-linejoin="round" stroke-linecap="butt" stroke-miterlimit="1.41421"/><path d=" M 761.926 182.153 L 708.102 182.153 L 708.102 85.264 L 761.926 85.264 L 761.926 99.797 L 721.558 99.797 L 721.558 121.597 L 761.926 121.597 L 761.926 136.131 L 721.558 136.131 L 721.558 167.62 L 761.926 167.62 L 761.926 182.153 Z " fill-rule="evenodd" fill="rgb(255,255,255)" vector-effect="non-scaling-stroke" stroke-width="4.661" stroke="rgb(0,0,0)" stroke-opacity="100" stroke-linejoin="round" stroke-linecap="butt" stroke-miterlimit="1.41421"/><rect x="685.676" y="85.264" width="13.456" height="96.889" transform="matrix(1,0,0,1,0,0)" fill="rgb(255,255,255)" vector-effect="non-scaling-stroke" stroke-width="4.661" stroke="rgb(0,0,0)" stroke-opacity="100" stroke-linejoin="round" stroke-linecap="butt" stroke-miterlimit="1.41421"/><path d=" M 643.065 182.153 L 629.609 182.153 L 595.969 85.264 L 609.425 85.264 L 636.337 162.775 L 663.249 85.264 L 676.705 85.264 L 643.065 182.153 Z " fill-rule="evenodd" fill="rgb(255,255,255)" vector-effect="non-scaling-stroke" stroke-width="4.661" stroke="rgb(0,0,0)" stroke-opacity="100" stroke-linejoin="round" stroke-linecap="butt" stroke-miterlimit="1.41421"/><path d=" M 555.602 182.153 L 519.719 182.153 L 519.719 85.264 C 519.719 85.264 533.323 85.264 555.602 85.264 C 577.88 85.264 595.969 106.972 595.969 133.708 C 595.969 160.445 577.88 182.153 555.602 182.153 Z  M 555.602 99.797 C 570.453 99.797 582.514 114.994 582.514 133.708 C 582.514 152.423 570.453 167.62 555.602 167.62 C 547.071 167.62 533.175 167.62 533.175 167.62 L 533.175 99.797 C 533.175 99.797 540.751 99.797 555.602 99.797 Z " fill-rule="evenodd" fill="rgb(255,255,255)" vector-effect="non-scaling-stroke" stroke-width="4.661" stroke="rgb(0,0,0)" stroke-opacity="100" stroke-linejoin="round" stroke-linecap="butt" stroke-miterlimit="1.41421"/><path d=" M 456.925 85.264 L 470.381 85.264 L 470.381 167.62 L 510.749 167.62 L 510.749 182.153 L 470.381 182.153 L 456.925 182.153 L 456.925 85.264 L 456.925 85.264 Z " fill-rule="evenodd" fill="rgb(255,255,255)" vector-effect="non-scaling-stroke" stroke-width="4.661" stroke="rgb(0,0,0)" stroke-opacity="100" stroke-linejoin="round" stroke-linecap="butt" stroke-miterlimit="1.41421"/><path d=" M 396.373 182.153 L 382.917 182.153 L 382.917 85.264 L 414.314 85.264 C 429.165 85.264 441.226 98.291 441.226 114.331 C 441.226 123.777 437.046 132.178 430.574 137.487 C 441.074 146.241 447.954 160.818 447.954 177.308 C 447.954 179.067 447.788 182.129 447.788 182.153 L 434.332 182.153 C 434.332 182.153 434.498 179.019 434.498 177.308 C 434.498 158.594 422.437 143.397 407.586 143.397 C 407.586 143.397 396.373 143.397 396.373 143.397 L 396.373 182.153 Z  M 414.314 128.864 C 421.742 128.864 427.77 122.353 427.77 114.331 C 427.77 106.308 421.742 99.797 414.314 99.797 C 409.497 99.797 396.373 99.797 396.373 99.797 L 396.373 128.864 L 414.314 128.864 Z " fill-rule="evenodd" fill="rgb(255,255,255)" vector-effect="non-scaling-stroke" stroke-width="4.661" stroke="rgb(0,0,0)" stroke-opacity="100" stroke-linejoin="round" stroke-linecap="butt" stroke-miterlimit="1.41421"/><path d=" M 333.579 85.264 C 355.857 85.264 373.947 106.972 373.947 133.708 C 373.947 160.445 355.857 182.153 333.579 182.153 C 311.3 182.153 293.211 160.445 293.211 133.708 C 293.211 106.972 311.3 85.264 333.579 85.264 Z  M 333.579 99.797 C 348.43 99.797 360.491 114.994 360.491 133.708 C 360.491 152.423 348.43 167.62 333.579 167.62 C 318.728 167.62 306.667 152.423 306.667 133.708 C 306.667 114.994 318.728 99.797 333.579 99.797 Z " fill-rule="evenodd" fill="rgb(255,255,255)" vector-effect="non-scaling-stroke" stroke-width="4.661" stroke="rgb(0,0,0)" stroke-opacity="100" stroke-linejoin="round" stroke-linecap="butt" stroke-miterlimit="1.41421"/><path d=" M 202.271 182.153 L 184.106 182.153 L 138.692 51.353 L 156.858 51.353 L 193.189 155.993 L 211.354 103.673 L 193.189 51.353 L 211.354 51.353 L 220.437 77.513 L 229.52 51.353 L 247.685 51.353 L 229.52 103.673 L 247.685 155.993 L 284.016 51.353 L 302.182 51.353 L 256.768 182.153 L 238.602 182.153 L 220.437 129.833 L 202.271 182.153 Z " fill-rule="evenodd" fill="rgb(255,255,255)" vector-effect="non-scaling-stroke" stroke-width="4.661" stroke="rgb(0,0,0)" stroke-opacity="100" stroke-linejoin="round" stroke-linecap="butt" stroke-miterlimit="1.41421"/></g></svg>